<?xml version="1.0" standalone="no"?><!DOCTYPE svg PUBLIC "-//W3C//DTD SVG 1.1//EN" "http://www.w3.org/Graphics/SVG/1.1/DTD/svg11.dtd"><svg t="1510649933587" class="icon" style="" viewBox="0 0 1024 1024" version="1.1" xmlns="http://www.w3.org/2000/svg" p-id="920" xmlns:xlink="http://www.w3.org/1999/xlink" width="64" height="64"><defs><style type="text/css"></style></defs><path d="M699.85 352.364a26.865 26.865 0 0 0 19.056-7.896l38.114-38.121c10.529-10.522 10.529-27.591 0-38.113-10.528-10.529-27.599-10.529-38.114 0l-38.113 38.12c-10.528 10.522-10.528 27.592 0 38.114 5.251 5.263 12.16 7.896 19.057 7.896zM266.671 516c0-14.885-12.069-26.953-26.954-26.953H185.81c-14.885 0-26.953 12.068-26.953 26.953s12.068 26.953 26.953 26.953h53.907c14.886 0 26.954-12.068 26.954-26.953zM299.6 687.539l-38.114 38.113c-10.529 10.529-10.529 27.586 0 38.115 5.264 5.264 12.162 7.895 19.058 7.895s13.792-2.631 19.057-7.895l38.114-38.115c10.529-10.527 10.529-27.598 0-38.113-10.504-10.528-27.587-10.528-38.115 0z m0-343.071c5.265 5.264 12.161 7.896 19.057 7.896s13.806-2.632 19.057-7.896c10.529-10.522 10.529-27.592 0-38.114l-38.114-38.12c-10.515-10.529-27.599-10.529-38.114 0-10.529 10.522-10.529 27.591 0 38.113l38.114 38.121z m209.653-71.049c14.885 0 26.953-12.069 26.953-26.954v-53.907c0-14.885-12.068-26.953-26.953-26.953-14.886 0-26.953 12.068-26.953 26.953v53.907c0 14.885 12.067 26.954 26.953 26.954z m323.441 215.628h-53.906c-14.886 0-26.953 12.068-26.953 26.953s12.067 26.953 26.953 26.953h53.906c14.886 0 26.954-12.068 26.954-26.953s-12.068-26.953-26.954-26.953zM718.905 687.539c-10.528-10.528-27.61-10.528-38.113 0-10.528 10.516-10.528 27.586 0 38.113l38.113 38.115a26.871 26.871 0 0 0 19.057 7.895 26.867 26.867 0 0 0 19.058-7.895c10.529-10.529 10.529-27.586 0-38.115l-38.115-38.113z m-209.652 71.043c-14.886 0-26.953 12.069-26.953 26.953v53.906c0 14.886 12.067 26.955 26.953 26.955 14.885 0 26.953-12.069 26.953-26.955v-53.906c0-14.884-12.068-26.953-26.953-26.953z m0-431.257c-104.037 0-188.675 84.638-188.675 188.675s84.638 188.675 188.675 188.675S697.928 620.037 697.928 516 613.29 327.325 509.253 327.325z m0 323.443c-74.306 0-134.768-60.461-134.768-134.768 0-74.313 60.461-134.768 134.768-134.768S644.021 441.687 644.021 516c0 74.307-60.461 134.768-134.768 134.768z" fill="#f4ea2a" p-id="921"></path></svg>