<?xml version="1.0" standalone="no"?><!DOCTYPE svg PUBLIC "-//W3C//DTD SVG 1.1//EN" "http://www.w3.org/Graphics/SVG/1.1/DTD/svg11.dtd"><svg t="1510650146041" class="icon" style="" viewBox="0 0 1024 1024" version="1.1" xmlns="http://www.w3.org/2000/svg" p-id="3594" xmlns:xlink="http://www.w3.org/1999/xlink" width="64" height="64"><defs><style type="text/css"></style></defs><path d="M428.9 417.3m-137.2 0a137.2 137.2 0 1 0 274.4 0 137.2 137.2 0 1 0-274.4 0Z" fill="#FFFFFF" p-id="3595"></path><path d="M428.9 557.9c-77.6 0-140.7-63.1-140.7-140.7s63.1-140.7 140.7-140.7 140.7 63.1 140.7 140.7-63.2 140.7-140.7 140.7z m0-274.4c-73.8 0-133.8 60-133.8 133.8S355.1 551 428.9 551s133.8-60 133.8-133.8-60.1-133.7-133.8-133.7z" fill="#00138A" p-id="3596"></path><path d="M437.8 234.7c-106.8 0-193.3 86.5-193.3 193.3S331 621.3 437.8 621.3 631.1 534.8 631.1 428s-86.6-193.3-193.3-193.3z m0 324.5c-72.4 0-131.2-58.7-131.2-131.2s58.7-131.2 131.2-131.2S569 355.6 569 428s-58.8 131.2-131.2 131.2z" fill="#F48E11" p-id="3597"></path><path d="M437.8 624.8C329.3 624.8 241 536.5 241 428s88.3-196.8 196.8-196.8S634.5 319.5 634.5 428s-88.2 196.8-196.7 196.8z m0-386.6c-104.7 0-189.9 85.2-189.9 189.9S333.1 618 437.8 618s189.8-85.3 189.8-190-85.1-189.8-189.8-189.8z m0 324.4c-74.2 0-134.6-60.4-134.6-134.6s60.4-134.6 134.6-134.6S572.4 353.8 572.4 428 512 562.6 437.8 562.6z m0-262.3c-70.4 0-127.7 57.3-127.7 127.7s57.3 127.7 127.7 127.7S565.5 498.4 565.5 428s-57.3-127.7-127.7-127.7z" fill="#AA5700" p-id="3598"></path><path d="M460.1 172.6h-42c-0.9 0-1.6-0.7-1.6-1.6V70.7c0-0.9 0.7-1.6 1.6-1.6h42c0.9 0 1.6 0.7 1.6 1.6V171c0.1 0.8-0.7 1.6-1.6 1.6z" fill="#F48E11" p-id="3599"></path><path d="M439.1 176c-14.4 0-26.1-11.7-26.1-26.1V91.6c0-14.4 11.7-26.1 26.1-26.1 14.4 0 26.1 11.7 26.1 26.1V150c0 14.3-11.7 26-26.1 26z m0-103.5c-10.6 0-19.2 8.6-19.2 19.2V150c0 10.6 8.6 19.2 19.2 19.2s19.2-8.6 19.2-19.2V91.6c0-10.5-8.6-19.1-19.2-19.1z" fill="#AA5700" p-id="3600"></path><path d="M273.6 233.2L244 262.9c-0.6 0.6-1.7 0.6-2.3 0l-71-70.9c-0.6-0.6-0.6-1.7 0-2.3l29.7-29.7c0.6-0.6 1.7-0.6 2.3 0l70.9 70.9c0.7 0.6 0.7 1.7 0 2.3z" fill="#F48E11" p-id="3601"></path><path d="M242.8 258.1c-7 0-13.5-2.7-18.4-7.6l-41.2-41.2c-4.9-4.9-7.6-11.4-7.6-18.4 0-7 2.7-13.5 7.6-18.4 9.8-9.8 27.1-9.8 36.9 0l41.2 41.2c4.9 4.9 7.6 11.4 7.6 18.4 0 7-2.7 13.5-7.6 18.4-5 4.9-11.5 7.6-18.5 7.6z m-41.2-86.4c-5.1 0-10 2-13.6 5.6-3.6 3.6-5.6 8.4-5.6 13.6 0 5.1 2 10 5.6 13.6l41.2 41.2c7.2 7.2 19.9 7.2 27.1 0 3.6-3.6 5.6-8.4 5.6-13.6s-2-10-5.6-13.6l-41.2-41.2c-3.6-3.6-8.4-5.6-13.5-5.6z" fill="#AA5700" p-id="3602"></path><path d="M184.7 408v42c0 0.9-0.7 1.6-1.6 1.6H82.7c-0.9 0-1.6-0.7-1.6-1.6v-42c0-0.9 0.7-1.6 1.6-1.6H183c0.9-0.1 1.7 0.7 1.7 1.6z" fill="#F48E11" p-id="3603"></path><path d="M162 455h-58.3c-14.4 0-26.1-11.7-26.1-26.1s11.7-26.1 26.1-26.1H162c14.4 0 26.1 11.7 26.1 26.1S176.4 455 162 455z m-58.3-45.2c-10.6 0-19.2 8.6-19.2 19.2s8.6 19.2 19.2 19.2H162c10.6 0 19.2-8.6 19.2-19.2s-8.6-19.2-19.2-19.2h-58.3z" fill="#AA5700" p-id="3604"></path><path d="M695.5 448v-42c0-0.9 0.7-1.6 1.6-1.6h100.3c0.9 0 1.6 0.7 1.6 1.6v42c0 0.9-0.7 1.6-1.6 1.6H697.2c-0.9 0.1-1.7-0.7-1.7-1.6z" fill="#F48E11" p-id="3605"></path><path d="M776.5 453.1h-58.3c-14.4 0-26.1-11.7-26.1-26.1 0-14.4 11.7-26.1 26.1-26.1h58.3c14.4 0 26.1 11.7 26.1 26.1-0.1 14.4-11.8 26.1-26.1 26.1z m-58.4-45.2c-10.6 0-19.2 8.6-19.2 19.2s8.6 19.2 19.2 19.2h58.3c10.6 0 19.2-8.6 19.2-19.2s-8.6-19.2-19.2-19.2h-58.3z" fill="#AA5700" p-id="3606"></path><path d="M634.9 261.5l-29.7-29.7c-0.6-0.6-0.6-1.7 0-2.3l70.9-70.9c0.6-0.6 1.7-0.6 2.3 0l29.7 29.7c0.6 0.6 0.6 1.7 0 2.3l-70.9 70.9c-0.7 0.7-1.7 0.7-2.3 0z" fill="#F48E11" p-id="3607"></path><path d="M636 256.8c-7 0-13.5-2.7-18.4-7.6-4.9-4.9-7.6-11.5-7.6-18.4 0-7 2.7-13.5 7.6-18.4l41.2-41.2c9.8-9.8 27-9.8 36.9 0 4.9 4.9 7.6 11.5 7.6 18.4 0 7-2.7 13.5-7.6 18.4l-41.2 41.2c-4.9 4.9-11.5 7.6-18.5 7.6z m41.3-86.5c-5.1 0-10 2-13.6 5.6l-41.2 41.2c-3.6 3.6-5.6 8.4-5.6 13.6 0 5.1 2 10 5.6 13.6 7.2 7.2 19.9 7.2 27.1 0l41.2-41.2c3.6-3.6 5.6-8.4 5.6-13.6 0-5.1-2-10-5.6-13.6s-8.4-5.6-13.5-5.6z" fill="#AA5700" p-id="3608"></path><path d="M503.4 684.6m-229 0a229 229 0 1 0 458 0 229 229 0 1 0-458 0Z" fill="#FFFFFF" p-id="3609"></path><path d="M774.3 701.3m-130.8 0a130.8 130.8 0 1 0 261.6 0 130.8 130.8 0 1 0-261.6 0Z" fill="#FFFFFF" p-id="3610"></path><path d="M249.7 701.3m-138.6 0a138.6 138.6 0 1 0 277.2 0 138.6 138.6 0 1 0-277.2 0Z" fill="#FFFFFF" p-id="3611"></path><path d="M774.3 518.9c-18.1 0-35.5 2.7-51.9 7.6-49.1-67.9-128.8-112.3-219.1-112.3-88.6 0-166.9 42.8-216.3 108.6-12.1-2.5-24.6-3.9-37.4-3.9-100.7 0-182.4 81.7-182.4 182.4s81.7 182.4 182.4 182.4c21.1 0 41.3-3.8 60.2-10.4C359 923.6 427.5 955 503.4 955c78.3 0 148.6-33.5 198-86.6 22.4 9.8 47 15.3 73 15.3 100.7 0 182.4-81.7 182.4-182.4-0.1-100.7-81.7-182.4-182.5-182.4z m0 313.2c-29 0-55.7-9.6-77.4-25.5-40.6 64.2-112 107-193.5 107-75.4 0-142-36.6-183.7-92.7-20.6 12.1-44.4 19.1-70 19.1-76.6 0-138.6-62.1-138.6-138.6 0-76.6 62.1-138.6 138.6-138.6 19 0 37.1 3.8 53.6 10.8 39.1-70.2 114-117.8 200.1-117.8 91.6 0 170.4 53.9 207 131.6 18.9-10.6 40.7-16.8 64-16.8 72.2 0 130.8 58.6 130.8 130.8 0 72.1-58.6 130.7-130.9 130.7z" fill="#0745C0" p-id="3612"></path><path d="M503.4 958.4c-73.6 0-142.6-28.8-194.4-81.2-19.4 6.6-39.3 9.9-59.3 9.9-102.5 0-185.8-83.4-185.8-185.8s83.4-185.8 185.8-185.8c12 0 24.1 1.2 36 3.5 52.4-68.8 131.6-108.2 217.7-108.2 86.6 0 168.8 41.7 220.4 111.8 16.6-4.7 33.6-7.1 50.6-7.1 102.5 0 185.8 83.4 185.8 185.8s-83.4 185.8-185.8 185.8c-24.9 0-49.2-4.9-72.1-14.6-52.5 55.4-123 85.9-198.9 85.9zM308.7 870l3.6 0.8c50.7 52 118.6 80.7 191 80.7 74.8 0 144.2-30.4 195.4-85.5l3.9-0.8c22.8 10 46.9 15 71.6 15 98.7 0 178.9-80.3 178.9-178.9 0-98.7-80.3-178.9-178.9-178.9-17.1 0-34.2 2.5-50.9 7.5l-3.8-1.3c-50.2-69.4-131-110.9-216.3-110.9-84.6 0-162.4 39.1-213.5 107.2l-3.5 1.3c-12.1-2.5-24.5-3.8-36.7-3.8-98.7 0-178.9 80.3-178.9 178.9 0 98.7 80.3 178.9 178.9 178.9 20.1 0 39.9-3.4 59.2-10.2z m194.7 47c-73.1 0-140.2-33.4-184.7-91.7-21.2 11.8-45 18-69.1 18-78.4 0-142.1-63.8-142.1-142.1s63.8-142.1 142.1-142.1c18 0 35.5 3.3 52.1 9.9 41.4-72.2 118.4-116.9 201.6-116.9 88.2 0 169.6 51 208.5 130.3 19.2-10.1 40.7-15.5 62.4-15.5 74 0 134.3 60.2 134.3 134.3s-60.2 134.3-134.3 134.3c-27.5 0-53.9-8.3-76.5-24.1-43 66.2-115.5 105.6-194.3 105.6z m-185.5-99.2l4.5 0.9c43.1 58 109.1 91.3 181 91.3 77.7 0 148.9-39.4 190.6-105.4l5-0.9c22.1 16.3 48.2 24.9 75.4 24.9 70.2 0 127.4-57.1 127.4-127.4s-57.1-127.4-127.4-127.4c-21.7 0-43.3 5.6-62.3 16.3l-4.8-1.5C670.1 510 590.1 459.1 503.4 459.1c-81.7 0-157.2 44.4-197.1 116l-4.3 1.5c-16.6-7-34.2-10.5-52.3-10.5-74.6 0-135.2 60.6-135.2 135.2s60.6 135.2 135.2 135.2c23.8 0 47.4-6.5 68.2-18.7z" fill="#00138A" p-id="3613"></path><path d="M710.4 587.2c-39.9 22.4-66.9 65.1-66.9 114.1 0 43.2 21.1 81.5 53.4 105.3 22.3-35.3 35.4-77.1 35.4-122 0-34.9-8-67.8-21.9-97.4z" fill="#FFFFFF" p-id="3614"></path><path d="M388.3 701.3c0-57.6-35.1-106.9-85-127.9-18.3 32.9-28.9 70.8-28.9 111.2 0 51.1 16.9 98.1 45.2 136.2 41.1-24.1 68.7-68.5 68.7-119.5z" fill="#FFFFFF" p-id="3615"></path></svg>