<?xml version="1.0" standalone="no"?><!DOCTYPE svg PUBLIC "-//W3C//DTD SVG 1.1//EN" "http://www.w3.org/Graphics/SVG/1.1/DTD/svg11.dtd"><svg t="1510650453872" class="icon" style="" viewBox="0 0 1024 1024" version="1.1" xmlns="http://www.w3.org/2000/svg" p-id="4493" xmlns:xlink="http://www.w3.org/1999/xlink" width="64" height="64"><defs><style type="text/css"></style></defs><path d="M503.4 347m-228.9 0a228.9 228.9 0 1 0 457.8 0 228.9 228.9 0 1 0-457.8 0Z" fill="#8a8a8a" p-id="4494"></path><path d="M774.3 363.6m-130.8 0a130.8 130.8 0 1 0 261.6 0 130.8 130.8 0 1 0-261.6 0Z" fill="#8a8a8a" p-id="4495"></path><path d="M249.9 363.6m-138.6 0a138.6 138.6 0 1 0 277.2 0 138.6 138.6 0 1 0-277.2 0Z" fill="#8a8a8a" p-id="4496"></path><path d="M774.3 181.4c-18 0-35.4 2.7-51.9 7.6-49.1-67.9-128.8-112.3-219-112.3-88.5 0-166.9 42.8-216.2 108.5-12.1-2.5-24.6-3.9-37.4-3.9-100.7 0-182.3 81.6-182.3 182.3 0 100.7 81.6 182.3 182.3 182.3 21.1 0 41.3-3.8 60.2-10.4 49.1 50.3 117.5 81.7 193.4 81.7 78.2 0 148.5-33.5 197.9-86.6 22.4 9.8 47 15.3 73 15.3 100.7 0 182.3-81.6 182.3-182.3-0.1-100.6-81.7-182.2-182.3-182.2z m0 313c-29 0-55.7-9.6-77.4-25.5-40.5 64.2-111.9 107-193.4 107-75.3 0-141.9-36.5-183.6-92.7-20.5 12.1-44.4 19.1-69.9 19.1-76.5 0-138.6-62-138.6-138.6 0-76.5 62-138.6 138.6-138.6 19 0 37.1 3.8 53.6 10.8 39.1-70.2 114-117.7 200-117.7 91.5 0 170.3 53.9 206.9 131.5 18.9-10.6 40.7-16.8 63.9-16.8 72.2 0 130.8 58.5 130.8 130.8-0.2 72.2-58.7 130.7-130.9 130.7z" fill="#8a8a8a" p-id="4497"></path><path d="M503.4 620.7c-73.5 0-142.5-28.8-194.3-81.2-19.4 6.5-39.3 9.9-59.2 9.9-102.4 0-185.7-83.3-185.7-185.7S147.5 178 249.9 178c12 0 24.1 1.2 36 3.5 52.4-68.8 131.5-108.2 217.6-108.2 86.6 0 168.7 41.7 220.3 111.7 16.6-4.7 33.6-7.1 50.5-7.1 102.4 0 185.7 83.3 185.7 185.7s-83.3 185.7-185.7 185.7c-24.9 0-49.1-4.9-72.1-14.6-51.8 54.7-124 86-198.8 86z m-194.6-88.4l3.6 0.8c50.7 52 118.5 80.6 190.9 80.6 74.8 0 144.1-30.4 195.3-85.5l3.9-0.8c22.8 10 46.8 15 71.6 15 98.6 0 178.8-80.2 178.8-178.8s-80.2-178.8-178.8-178.8c-17.1 0-34.2 2.5-50.9 7.5l-3.8-1.3c-50.2-69.4-131-110.8-216.1-110.8-84.6 0-162.4 39.1-213.4 107.2l-3.5 1.3c-12.1-2.5-24.5-3.8-36.7-3.8C151.2 184.8 71 265 71 363.7s80.2 178.8 178.8 178.8c19.9 0 39.7-3.4 59-10.2z m194.6 47c-73 0-140.1-33.4-184.6-91.6-21.2 11.8-45 18-69 18-78.3 0-142-63.7-142-142s63.7-142 142-142c18 0 35.5 3.3 52.1 9.9 41.4-72.1 118.3-116.8 201.5-116.8 88.1 0 169.6 51 208.4 130.2 19.2-10.1 40.7-15.4 62.4-15.4 74 0 134.2 60.2 134.2 134.2S848.2 498 774.2 498c-27.5 0-53.8-8.3-76.4-24.1-43.2 66-115.6 105.4-194.4 105.4zM318 480.2l4.5 0.9c43.1 58 109 91.3 180.9 91.3 77.6 0 148.9-39.4 190.5-105.4l5-0.9C721 482.4 747 491 774.2 491c70.2 0 127.3-57.1 127.3-127.3s-57.1-127.3-127.3-127.3c-21.7 0-43.3 5.6-62.2 16.3l-4.8-1.5c-37.1-78.7-117.1-129.6-203.8-129.6-81.7 0-157.1 44.4-197 116l-4.3 1.5c-16.6-7-34.2-10.5-52.3-10.5-74.5 0-135.1 60.6-135.1 135.1s60.6 135.1 135.1 135.1c23.9 0 47.4-6.5 68.2-18.6z" fill="#8a8a8a" p-id="4498"></path><path d="M710.3 249.7c-39.9 22.4-66.8 65-66.8 114 0 43.2 21.1 81.4 53.4 105.2 22.3-35.3 35.4-77 35.4-121.9 0-34.9-8-67.8-22-97.3z" fill="#8a8a8a" p-id="4499"></path><path d="M388.4 363.6c0-57.5-35.1-106.9-85-127.8-18.3 32.9-28.9 70.8-28.9 111.1 0 51.1 16.9 98.1 45.2 136.2 41.1-24 68.7-68.5 68.7-119.5z" fill="#8a8a8a" p-id="4500"></path><path d="M289.5 679.4c0 30.5-24.7 55.2-55.2 55.2s-55.2-24.7-55.2-55.2c0-23.6 33.1-76.8 48-99.7 3.4-5.2 11-5.2 14.4 0 14.9 22.9 48 76.1 48 99.7z" fill="#8a8a8a" p-id="4501"></path><path d="M234.3 738c-32.3 0-58.7-26.3-58.7-58.7 0-23.7 30.4-73.8 48.6-101.5 4.5-6.8 15.7-6.8 20.1 0 18.1 27.7 48.6 77.8 48.6 101.5 0 32.4-26.3 58.7-58.6 58.7z m0-158.7c-1.8 0-3.3 0.9-4.3 2.3-14.3 21.8-47.5 75-47.5 97.8 0 28.5 23.2 51.8 51.8 51.8 28.5 0 51.8-23.2 51.8-51.8 0-22.8-33.2-76-47.5-97.8-1-1.5-2.6-2.3-4.3-2.3z" fill="#8a8a8a" p-id="4502"></path><path d="M565.5 755.2c0 30.5-24.7 55.2-55.2 55.2s-55.2-24.7-55.2-55.2c0-23.6 33.1-76.8 48-99.7 3.4-5.2 11-5.2 14.4 0 14.9 22.9 48 76.1 48 99.7z" fill="#8a8a8a" p-id="4503"></path><path d="M510.3 813.9c-32.3 0-58.7-26.3-58.7-58.7 0-23.7 30.4-73.8 48.6-101.5 4.5-6.8 15.7-6.8 20.1 0 18.1 27.7 48.6 77.8 48.6 101.5 0 32.4-26.3 58.7-58.6 58.7z m0-158.8c-1.8 0-3.3 0.9-4.3 2.3-14.3 21.8-47.5 75-47.5 97.8 0 28.5 23.2 51.8 51.8 51.8s51.8-23.2 51.8-51.8c0-22.8-33.2-76-47.5-97.8-1-1.4-2.6-2.3-4.3-2.3z" fill="#8a8a8a" p-id="4504"></path><path d="M841.5 671.3c0 30.5-24.7 55.2-55.2 55.2-30.5 0-55.2-24.7-55.2-55.2 0-23.6 33.1-76.8 48-99.7 3.4-5.2 11-5.2 14.4 0 14.9 22.9 48 76.1 48 99.7z" fill="#8a8a8a" p-id="4505"></path><path d="M786.3 729.9c-32.3 0-58.7-26.3-58.7-58.7 0-23.8 30.4-73.8 48.6-101.5 4.5-6.8 15.7-6.8 20.1 0 18.1 27.7 48.6 77.8 48.6 101.5 0 32.4-26.3 58.7-58.6 58.7z m0-158.7c-1.8 0-3.3 0.8-4.3 2.3-29.7 45.4-47.5 81.9-47.5 97.8 0 28.5 23.2 51.8 51.8 51.8s51.8-23.2 51.8-51.8c0-15.8-17.7-52.4-47.5-97.8-1-1.5-2.6-2.3-4.3-2.3z" fill="#8a8a8a" p-id="4506"></path><path d="M386.1 892.1c0 30.5-24.7 55.2-55.2 55.2s-55.2-24.7-55.2-55.2c0-23.6 33.1-76.8 48-99.7 3.4-5.2 11-5.2 14.4 0 14.9 22.9 48 76.1 48 99.7z" fill="#8a8a8a" p-id="4507"></path><path d="M330.9 950.7c-32.3 0-58.7-26.3-58.7-58.7 0-23.8 30.4-73.8 48.6-101.5 4.5-6.8 15.7-6.8 20.1 0 18.1 27.7 48.6 77.8 48.6 101.5 0 32.4-26.3 58.7-58.6 58.7z m0-158.7c-1.8 0-3.3 0.8-4.3 2.3-29.7 45.4-47.5 81.9-47.5 97.8 0 28.5 23.2 51.8 51.8 51.8 28.5 0 51.8-23.2 51.8-51.8 0-15.8-17.7-52.4-47.5-97.8-1-1.5-2.6-2.3-4.3-2.3z" fill="#8a8a8a" p-id="4508"></path><path d="M727.6 892.1c0 30.5-24.7 55.2-55.2 55.2-30.5 0-55.2-24.7-55.2-55.2 0-23.6 33.1-76.8 48-99.7 3.4-5.2 11-5.2 14.4 0 15 22.9 48 76.1 48 99.7z" fill="#8a8a8a" p-id="4509"></path><path d="M672.4 950.7c-32.3 0-58.7-26.3-58.7-58.7 0-23.8 30.4-73.8 48.6-101.5 4.5-6.8 15.7-6.8 20.1 0C700.5 818.2 731 868.3 731 892c0.1 32.4-26.2 58.7-58.6 58.7z m0-158.7c-1.8 0-3.3 0.8-4.3 2.3-29.7 45.4-47.5 81.9-47.5 97.8 0 28.5 23.2 51.8 51.8 51.8 28.5 0 51.8-23.2 51.8-51.8 0-15.8-17.7-52.4-47.5-97.8-1-1.5-2.5-2.3-4.3-2.3z" fill="#8a8a8a" p-id="4510"></path><path d="M774.3 181.4c-18 0-35.4 2.7-51.9 7.6-49.1-67.9-128.8-112.3-219-112.3-88.5 0-166.9 42.8-216.2 108.5-12.1-2.5-24.6-3.9-37.4-3.9-100.7 0-182.3 81.6-182.3 182.3 0 100.7 81.6 182.3 182.3 182.3 21.1 0 41.3-3.8 60.2-10.4 49.1 50.3 117.5 81.7 193.4 81.7 78.2 0 148.5-33.5 197.9-86.6 22.4 9.8 47 15.3 73 15.3 100.7 0 182.3-81.6 182.3-182.3-0.1-100.6-81.7-182.2-182.3-182.2z" fill="#8a8a8a" p-id="4511"></path><path d="M503.4 620.7c-73.5 0-142.5-28.8-194.3-81.2-19.4 6.5-39.3 9.9-59.2 9.9-102.4 0-185.7-83.3-185.7-185.7S147.5 178 249.9 178c12 0 24.1 1.2 36 3.5 52.4-68.8 131.5-108.2 217.6-108.2C590 73.3 672.2 115 723.7 185c16.6-4.7 33.6-7.1 50.5-7.1 102.4 0 185.7 83.3 185.7 185.7s-83.3 185.7-185.7 185.7c-24.9 0-49.1-4.9-72.1-14.6-51.6 54.7-123.9 86-198.7 86zM311 531.6l1.5 1.6c50.7 52 118.5 80.6 190.9 80.6 74.8 0 144.1-30.4 195.3-85.5l1.7-1.8 2.2 1c22.8 10 46.8 15 71.6 15 98.6 0 178.8-80.2 178.8-178.8s-80.2-178.8-178.8-178.8c-17.1 0-34.2 2.5-50.9 7.5l-2.3 0.6-1.4-2c-50.2-69.4-131-110.8-216.1-110.8-84.6 0-162.4 39.1-213.4 107.2l-1.3 1.8-2.1-0.4c-12.1-2.5-24.5-3.8-36.7-3.8-98.7-0.2-179 80-179 178.7s80.2 178.8 178.8 178.8c19.9 0 39.7-3.4 59-10.2l2.2-0.7z" fill="#8a8a8a" p-id="4512"></path></svg>